# xmcd CD database file
#
# Track frame offsets:
#	150
#	12686
#	23399
#	35734
#	50161
#	60575
#	73387
#	86088
#	94593
#	107481
#	120418
#	132696
#	145085
#	158931
#	171179
#	183866
#	195468
#	209901
#	219699
#	232875
#	245682
#	258399
#	271326
#	279748
#	289704
#	300637
#	311354
#	325364
#	339739
#
# Disc length: 4723 seconds
#
# Revision: 1
# Processed by: cddbd v1.5.2PL0 Copyright (c) Steve Scherf et al.
# Submitted via: CDex 1.94
#
DISCID=bf12711d
DTITLE=Various Artist - Chicago Bound (Chess Blues, R&B And Rock 'N' Roll) CD2
DYEAR=2014
DGENRE=Blues
TTITLE0=Little Walter - Juke
TTITLE1=Sonny Boy Williamson - Fattening Frogs For Snakes
TTITLE2=Howlin' Wolf - How Many More Years
TTITLE3=Lowell Fulson - Reconsider Baby
TTITLE4=Elmore James - I Can't Hold Out
TTITLE5=Etta James - Something's Got A Hold On Me
TTITLE6=Bo Diddley - Road Runner
TTITLE7=Chuck Berry - Jaguar And Thunderbird
TTITLE8=Jackie Brenston And His Delta Cats - Rocket 88
TTITLE9=Willie Dixon - Crazy For My Baby
TTITLE10=Otis Spann - It Must Have Been The Devil
TTITLE11=Little Walter - Mellow Down Easy
TTITLE12=Jimmy Rogers - Sloppy Drunk
TTITLE13=Muddy Waters - I Can't Be Satisfied
TTITLE14=John Lee Hooker - Leave My Wife Alone
TTITLE15=Jimmy Binkley - Wine, Wine, Wine
TTITLE16=Danny Overbea - Forty Cups Of Coffee
TTITLE17=Buddy Guy - The Slop Around
TTITLE18=Lowell Fulson - Trouble, Trouble
TTITLE19=Etta James And Harvey Fuqua - Spoonful
TTITLE20=Sugar Pie Desanto - Can't Let You Go
TTITLE21=Bo Diddley - Pills
TTITLE22=Chuck Berry - Come On
TTITLE23=Dale Hawkins - Take My Heart
TTITLE24=Betty James - Henry Lee
TTITLE25=Billy Emerson - I'll Get You, Too
TTITLE26=Rosco Gordon - Booted
TTITLE27=Forrest C. Sykes - Tonky Boogie
TTITLE28=Arbee Stidham - Mr Commissioner
EXTD=YEAR: 2014
EXTT0=
EXTT1=
EXTT2=
EXTT3=
EXTT4=
EXTT5=
EXTT6=
EXTT7=
EXTT8=
EXTT9=
EXTT10=
EXTT11=
EXTT12=
EXTT13=
EXTT14=
EXTT15=
EXTT16=
EXTT17=
EXTT18=
EXTT19=
EXTT20=
EXTT21=
EXTT22=
EXTT23=
EXTT24=
EXTT25=
EXTT26=
EXTT27=
EXTT28=
PLAYORDER=
